<svg id="visual" viewBox="0 0 900 600" width="900" height="600" xmlns="http://www.w3.org/2000/svg" xmlns:xlink="http://www.w3.org/1999/xlink" version="1.1"><g><g transform="translate(692 177)"><path d="M101 -33.8C114.7 9.1 98.2 60.9 63.2 86.2C28.1 111.4 -25.5 110.2 -62 84C-98.5 57.9 -117.8 6.7 -104.5 -35.7C-91.3 -78 -45.7 -111.4 -1 -111.1C43.7 -110.8 87.4 -76.7 101 -33.8Z" stroke="#e56363" fill="none" stroke-width="20"></path></g><g transform="translate(211 310)"><path d="M52.9 -18.7C59.4 2.9 49.3 28.4 31.5 40.7C13.8 53 -11.7 52 -30 39.2C-48.4 26.3 -59.7 1.6 -53.5 -19.4C-47.3 -40.5 -23.6 -58 -0.2 -57.9C23.2 -57.9 46.4 -40.2 52.9 -18.7Z" stroke="#e56363" fill="none" stroke-width="20"></path></g><g transform="translate(552 437)"><path d="M82.9 -24.4C93.9 7.1 80.1 49.2 50.9 70.5C21.7 91.8 -22.9 92.4 -52.9 71C-83 49.6 -98.4 6.3 -87.2 -25.5C-75.9 -57.3 -38 -77.5 -1 -77.2C35.9 -76.9 71.8 -55.9 82.9 -24.4Z" stroke="#e56363" fill="none" stroke-width="20"></path></g></g></svg>