<svg id="visual" viewBox="0 0 900 600" width="900" height="600" xmlns="http://www.w3.org/2000/svg" xmlns:xlink="http://www.w3.org/1999/xlink" version="1.1"><path d="M306 0L292.8 14.3C279.7 28.7 253.3 57.3 258.5 85.8C263.7 114.3 300.3 142.7 308.2 171.2C316 199.7 295 228.3 297.7 257C300.3 285.7 326.7 314.3 319.3 343C312 371.7 271 400.3 274.2 428.8C277.3 457.3 324.7 485.7 345.5 514.2C366.3 542.7 360.7 571.3 357.8 585.7L355 600L0 600L0 585.7C0 571.3 0 542.7 0 514.2C0 485.7 0 457.3 0 428.8C0 400.3 0 371.7 0 343C0 314.3 0 285.7 0 257C0 228.3 0 199.7 0 171.2C0 142.7 0 114.3 0 85.8C0 57.3 0 28.7 0 14.3L0 0Z" fill="#ffc39d"></path><path d="M249 0L251.8 14.3C254.7 28.7 260.3 57.3 270.2 85.8C280 114.3 294 142.7 290 171.2C286 199.7 264 228.3 258 257C252 285.7 262 314.3 264.3 343C266.7 371.7 261.3 400.3 249.7 428.8C238 457.3 220 485.7 227 514.2C234 542.7 266 571.3 282 585.7L298 600L0 600L0 585.7C0 571.3 0 542.7 0 514.2C0 485.7 0 457.3 0 428.8C0 400.3 0 371.7 0 343C0 314.3 0 285.7 0 257C0 228.3 0 199.7 0 171.2C0 142.7 0 114.3 0 85.8C0 57.3 0 28.7 0 14.3L0 0Z" fill="#e79c76"></path><path d="M237 0L228.5 14.3C220 28.7 203 57.3 189 85.8C175 114.3 164 142.7 163 171.2C162 199.7 171 228.3 167.8 257C164.7 285.7 149.3 314.3 151.7 343C154 371.7 174 400.3 180.2 428.8C186.3 457.3 178.7 485.7 173.2 514.2C167.7 542.7 164.3 571.3 162.7 585.7L161 600L0 600L0 585.7C0 571.3 0 542.7 0 514.2C0 485.7 0 457.3 0 428.8C0 400.3 0 371.7 0 343C0 314.3 0 285.7 0 257C0 228.3 0 199.7 0 171.2C0 142.7 0 114.3 0 85.8C0 57.3 0 28.7 0 14.3L0 0Z" fill="#ce7453"></path><path d="M132 0L138.3 14.3C144.7 28.7 157.3 57.3 162.3 85.8C167.3 114.3 164.7 142.7 152.2 171.2C139.7 199.7 117.3 228.3 112.2 257C107 285.7 119 314.3 121 343C123 371.7 115 400.3 109 428.8C103 457.3 99 485.7 101 514.2C103 542.7 111 571.3 115 585.7L119 600L0 600L0 585.7C0 571.3 0 542.7 0 514.2C0 485.7 0 457.3 0 428.8C0 400.3 0 371.7 0 343C0 314.3 0 285.7 0 257C0 228.3 0 199.7 0 171.2C0 142.7 0 114.3 0 85.8C0 57.3 0 28.7 0 14.3L0 0Z" fill="#b44c35"></path><path d="M47 0L57 14.3C67 28.7 87 57.3 89.7 85.8C92.3 114.3 77.7 142.7 77.3 171.2C77 199.7 91 228.3 95.7 257C100.3 285.7 95.7 314.3 93 343C90.3 371.7 89.7 400.3 87.5 428.8C85.3 457.3 81.7 485.7 74.8 514.2C68 542.7 58 571.3 53 585.7L48 600L0 600L0 585.7C0 571.3 0 542.7 0 514.2C0 485.7 0 457.3 0 428.8C0 400.3 0 371.7 0 343C0 314.3 0 285.7 0 257C0 228.3 0 199.7 0 171.2C0 142.7 0 114.3 0 85.8C0 57.3 0 28.7 0 14.3L0 0Z" fill="#991b1b"></path></svg>