<svg id="visual" viewBox="0 0 900 600" width="900" height="600" xmlns="http://www.w3.org/2000/svg" xmlns:xlink="http://www.w3.org/1999/xlink" version="1.1"><path d="M596 600L609.2 585.7C622.3 571.3 648.7 542.7 643.5 514.2C638.3 485.7 601.7 457.3 593.8 428.8C586 400.3 607 371.7 604.3 343C601.7 314.3 575.3 285.7 582.7 257C590 228.3 631 199.7 627.8 171.2C624.7 142.7 577.3 114.3 556.5 85.8C535.7 57.3 541.3 28.7 544.2 14.3L547 0L900 0L900 14.3C900 28.7 900 57.3 900 85.8C900 114.3 900 142.7 900 171.2C900 199.7 900 228.3 900 257C900 285.7 900 314.3 900 343C900 371.7 900 400.3 900 428.8C900 457.3 900 485.7 900 514.2C900 542.7 900 571.3 900 585.7L900 600Z" fill="#ffc39d"></path><path d="M653 600L650.2 585.7C647.3 571.3 641.7 542.7 631.8 514.2C622 485.7 608 457.3 612 428.8C616 400.3 638 371.7 644 343C650 314.3 640 285.7 637.7 257C635.3 228.3 640.7 199.7 652.3 171.2C664 142.7 682 114.3 675 85.8C668 57.3 636 28.7 620 14.3L604 0L900 0L900 14.3C900 28.7 900 57.3 900 85.8C900 114.3 900 142.7 900 171.2C900 199.7 900 228.3 900 257C900 285.7 900 314.3 900 343C900 371.7 900 400.3 900 428.8C900 457.3 900 485.7 900 514.2C900 542.7 900 571.3 900 585.7L900 600Z" fill="#e79c76"></path><path d="M665 600L673.5 585.7C682 571.3 699 542.7 713 514.2C727 485.7 738 457.3 739 428.8C740 400.3 731 371.7 734.2 343C737.3 314.3 752.7 285.7 750.3 257C748 228.3 728 199.7 721.8 171.2C715.7 142.7 723.3 114.3 728.8 85.8C734.3 57.3 737.7 28.7 739.3 14.3L741 0L900 0L900 14.3C900 28.7 900 57.3 900 85.8C900 114.3 900 142.7 900 171.2C900 199.7 900 228.3 900 257C900 285.7 900 314.3 900 343C900 371.7 900 400.3 900 428.8C900 457.3 900 485.7 900 514.2C900 542.7 900 571.3 900 585.7L900 600Z" fill="#ce7453"></path><path d="M770 600L763.7 585.7C757.3 571.3 744.7 542.7 739.7 514.2C734.7 485.7 737.3 457.3 749.8 428.8C762.3 400.3 784.7 371.7 789.8 343C795 314.3 783 285.7 781 257C779 228.3 787 199.7 793 171.2C799 142.7 803 114.3 801 85.8C799 57.3 791 28.7 787 14.3L783 0L900 0L900 14.3C900 28.7 900 57.3 900 85.8C900 114.3 900 142.7 900 171.2C900 199.7 900 228.3 900 257C900 285.7 900 314.3 900 343C900 371.7 900 400.3 900 428.8C900 457.3 900 485.7 900 514.2C900 542.7 900 571.3 900 585.7L900 600Z" fill="#b44c35"></path><path d="M855 600L845 585.7C835 571.3 815 542.7 812.3 514.2C809.7 485.7 824.3 457.3 824.7 428.8C825 400.3 811 371.7 806.3 343C801.7 314.3 806.3 285.7 809 257C811.7 228.3 812.3 199.7 814.5 171.2C816.7 142.7 820.3 114.3 827.2 85.8C834 57.3 844 28.7 849 14.3L854 0L900 0L900 14.3C900 28.7 900 57.3 900 85.8C900 114.3 900 142.7 900 171.2C900 199.7 900 228.3 900 257C900 285.7 900 314.3 900 343C900 371.7 900 400.3 900 428.8C900 457.3 900 485.7 900 514.2C900 542.7 900 571.3 900 585.7L900 600Z" fill="#991b1b"></path></svg>